Baba (2002) DvdRip Telugu Movie - teluguppls




General

Format                           : MPEG-4
Format profile                   : Base Media
Codec ID                         : isom
File size                        : 697 MiB
Duration                         : 2h 42mn
Overall bit rate                 : 600 Kbps


Video

Format                           : AVC
Format/Info                      : Advanced Video Codec
Format profile                   : High@L4.1
Format settings, CABAC           : Yes
Format settings, ReFrames        : 3 frames
Codec ID/Info                    : Advanced Video Coding
Duration                         : 2h 42mn
Bit rate mode                    : Variable
Bit rate                         : 534 Kbps
Maximum bit rate                 : 14.0 Mbps
Width                            : 608 pixels
Height                           : 256 pixels
Display aspect ratio             : 2.35:1
Frame rate mode                  : Constant
Frame rate                       : 29.970 fps
Color space                      : YUV
Chroma subsampling               : 4:2:0
Bit depth                        : 8 bits
Scan type                        : Progressive
Bits/(Pixel*Frame)               : 0.114
Stream size                      : 618 MiB (89%)
Writing library                  : x264 core 80 r1376M 3feaec2


Audio

Format                           : AAC
Format/Info                      : Advanced Audio Codec
Format profile                   : LC
Duration                         : 2h 42mn
Bit rate mode                    : Variable
Bit rate                         : 64.0 Kbps
Maximum bit rate                 : 74.2 Kbps
Channel(s)                       : 2 channels
Channel positions                : Front: L R
Sampling rate                    : 48.0 KHz
Compression mode                 : Lossy
Stream size                      : 74.3 MiB (11%)



PLEASE SEEEEEEEEEEEDDDDDDDDDDDDDDDDD...................

POST A COMMENT.....................